PathFileType	4	(X/Y/Z)	Kaydara																																																																																																																									
DataRate	CameraRate	NumFrames	NumMarkers	Units	OrigDataRate	OrigDataStartFrame	OrigNumFrames																																																																																																																					
30	30	5	41	mm	30	83	321																																																																																																																					
Frame#	Time	PAIB_LFHD			PAIB_RFHD			PAIB_LBHD			PAIB_RBHD			PAIB_LFTShould			PAIB_RFTShould			PAIB_LRRShould			PAIB_RRRShould			PAIB_T10			PAIB_STRN			PAIB_TRUN			PAIB_LSHO			PAIB_LUPA			PAIB_LELB			PAIB_LFRM			PAIB_LWRA			PAIB_LWRB			PAIB_LFIN			PAIB_RSHO			PAIB_RUPA			PAIB_RELB			PAIB_RFRM			PAIB_RWRA			PAIB_RWRB			PAIB_RFIN			PAIB_LFWT			PAIB_RFWT			PAIB_LBWT			PAIB_RBWT			PAIB_LTHI			PAIB_LKNE			PAIB_LSHN			PAIB_LANK			PAIB_LHEE			PAIB_LTOE			PAIB_RTHI			PAIB_RKNE			PAIB_RSHN			PAIB_RANK			PAIB_RHEE			PAIB_RTOE		
		X1	Y1	Z1	X2	Y2	Z2	X3	Y3	Z3	X4	Y4	Z4	X5	Y5	Z5	X6	Y6	Z6	X7	Y7	Z7	X8	Y8	Z8	X9	Y9	Z9	X10	Y10	Z10	X11	Y11	Z11	X12	Y12	Z12	X13	Y13	Z13	X14	Y14	Z14	X15	Y15	Z15	X16	Y16	Z16	X17	Y17	Z17	X18	Y18	Z18	X19	Y19	Z19	X20	Y20	Z20	X21	Y21	Z21	X22	Y22	Z22	X23	Y23	Z23	X24	Y24	Z24	X25	Y25	Z25	X26	Y26	Z26	X27	Y27	Z27	X28	Y28	Z28	X29	Y29	Z29	X30	Y30	Z30	X31	Y31	Z31	X32	Y32	Z32	X33	Y33	Z33	X34	Y34	Z34	X35	Y35	Z35	X36	Y36	Z36	X37	Y37	Z37	X38	Y38	Z38	X39	Y39	Z39	X40	Y40	Z40	X41	Y41	Z41
																																																																																																																												
81	2.727	183.43744	1608.02734	-1734.59076	0.09277	1608.71643	-1739.48822	195.17803	1649.27307	-1858.09494	-7.81019	1654.00009	-1846.06461	167.05647	1396.53259	-1858.08151	45.89712	1386.51749	-1846.36292	159.87898	1490.2916	-1984.34601	5.37783	1476.48621	-1958.21838	74.85198	1345.03372	-2082.83066	118.96657	1321.68579	-1830.29449	123.92589	1217.81242	-1829.36447	287.54274	1425.60638	-1936.74911	345.91305	1202.99576	-1978.4761	360.55584	1122.98882	-2029.28619	381.7807	1005.55351	-1996.4502	328.67416	886.74255	-1915.21805	366.24939	874.11888	-1986.4566	379.27532	832.89108	-1924.80576	-87.13558	1391.20956	-1875.32227	-146.68013	1216.75331	-1916.1441	-162.00632	1097.47665	-1931.88873	-153.85746	959.11598	-1903.26294	-57.16661	861.19125	-1833.57742	-134.54504	840.25833	-1859.47037	-103.21046	805.71877	-1800.32059	224.62498	968.87566	-1897.22137	-10.47382	957.02827	-1873.86353	146.79286	1016.66534	-2104.30542	1.86133	1021.32256	-2087.21283	219.27475	723.57124	-2058.55392	277.29958	502.77695	-1891.63086	260.53082	319.13475	-1943.3046	263.4264	180.58407	-2096.47888	203.60315	185.27344	-2140.45685	268.39329	83.21017	-1955.94772	-40.83542	724.01352	-2097.13242	-24.84704	475.92743	-2038.93661	47.0362	295.75289	-2045.21286	25.32967	103.81553	-2150.80444	84.91997	118.38329	-2204.6077	50.38215	76.57839	-1981.34674
82	2.76	183.22132	1605.65399	-1725.22064	-0.08869	1606.315	-1729.98566	194.83677	1647.67654	-1848.49274	-8.13476	1652.24594	-1836.28876	167.23293	1395.06134	-1850.34943	45.97985	1384.75891	-1838.27164	159.24375	1489.63715	-1976.0704	4.78325	1475.4158	-1949.37637	73.93355	1345.04654	-2075.29953	119.30067	1319.9881	-1823.13171	124.1012	1215.99915	-1822.90451	287.80117	1425.05539	-1930.98831	345.28759	1202.27867	-1974.06158	359.31225	1122.63443	-2025.55206	380.56068	1005.17578	-1993.78098	327.63969	885.68764	-1912.69455	364.97284	873.63792	-1984.51904	378.00838	831.95702	-1922.92816	-87.0035	1389.4017	-1866.63483	-147.05203	1215.09964	-1906.74225	-162.63502	1095.7753	-1921.74896	-154.29866	957.5547	-1892.98126	-56.76047	859.79141	-1823.62823	-134.57105	838.78654	-1849.17694	-102.63637	804.31458	-1790.29877	223.51109	968.74001	-1891.29669	-11.8988	956.17821	-1868.76923	147.41386	1015.4808	-2098.88138	2.34146	1020.61203	-2082.48169	220.44029	722.31705	-2045.84503	277.80371	506.81927	-1871.90231	259.86843	321.82053	-1919.5578	260.31107	180.18097	-2069.88693	200.17422	183.80215	-2113.46146	265.00101	87.68187	-1926.72592	-40.57272	724.28917	-2093.86139	-26.13356	475.98572	-2037.38663	46.74501	295.71447	-2044.53491	25.26386	104.31076	-2150.68848	84.85981	119.14218	-2204.27567	50.11371	76.71592	-1981.30341
83	2.793	183.77327	1603.62076	-1715.35904	0.41734	1604.25095	-1720.06195	195.28919	1646.34323	-1838.3786	-7.7367	1650.82718	-1826.06689	167.69945	1393.71719	-1841.64505	46.54604	1383.33466	-1829.4516	159.44807	1489.09409	-1966.91895	5.13546	1474.68552	-1939.96582	73.90302	1345.22842	-2066.98303	119.60948	1318.39783	-1814.84161	124.38022	1214.51927	-1815.37415	287.65461	1423.7912	-1921.57532	344.92413	1201.69724	-1968.10745	358.6306	1122.55676	-2020.51834	379.62627	1004.52042	-1989.62402	326.9508	884.87953	-1909.11926	363.91224	873.17352	-1981.6217	376.99776	830.90141	-1920.32242	-86.52274	1388.18909	-1857.24838	-146.29799	1214.04373	-1897.34497	-162.23354	1094.683	-1911.86417	-153.87283	956.52069	-1882.72278	-56.20456	858.92044	-1813.39066	-134.24249	837.90184	-1838.65555	-101.88219	803.52745	-1779.91776	222.81656	968.70918	-1884.64706	-12.34458	955.10635	-1863.21411	148.27887	1014.97307	-2092.55814	3.09888	1020.15739	-2076.76193	221.24241	721.88698	-2034.78302	277.92194	510.2684	-1853.77396	258.85391	322.88807	-1891.86264	258.12618	173.51038	-2034.4986	198.08287	175.04229	-2078.23013	261.70286	89.64607	-1886.21017	-39.66545	724.51363	-2090.1384	-26.48332	475.82401	-2035.37415	46.27098	294.81857	-2044.62784	25.44797	104.75367	-2150.39978	85.12792	119.793	-2203.94348	49.87447	76.69985	-1981.38046
84	2.827	185.13948	1601.66763	-1704.98169	1.7792	1602.60452	-1709.5546	196.63982	1644.80804	-1827.90848	-6.33808	1649.51797	-1815.3183	168.56031	1392.27203	-1831.91986	47.50463	1381.96091	-1819.96094	160.3661	1488.44589	-1956.72043	6.2314	1474.01581	-1929.7583	74.60128	1345.25894	-2057.6178	120.29148	1316.70532	-1805.69412	124.97415	1212.8656	-1807.01263	288.43714	1422.68616	-1911.64383	345.26691	1201.03943	-1960.74921	358.60996	1122.3909	-2013.94592	379.45465	1003.9415	-1984.28131	327.15637	883.73024	-1904.23721	361.03989	871.03531	-1975.52383	376.85654	829.67667	-1916.60629	-85.65731	1387.44751	-1847.50732	-145.1879	1213.33878	-1887.97592	-161.03321	1094.02664	-1902.43179	-152.79282	955.9343	-1872.82318	-55.24673	858.69583	-1802.57751	-133.19088	837.45491	-1828.34122	-101.24022	803.30818	-1769.21738	223.1221	968.69583	-1877.83005	-11.9229	953.49113	-1856.39313	149.22781	1014.59549	-2085.61035	4.05803	1019.4854	-2069.84497	222.42752	721.70921	-2024.95575	277.13263	513.10646	-1836.42212	258.29777	323.4874	-1861.2883	257.58018	163.60367	-1991.71555	197.09303	161.49391	-2034.98917	259.78758	89.43643	-1837.11563	-38.50617	724.54681	-2085.50201	-25.79041	475.37758	-2032.87415	47.25836	295.25093	-2041.24283	25.78695	105.27422	-2150.52307	85.76576	120.29592	-2203.63007	49.65628	76.61809	-1981.59958
85	2.86	187.5349	1599.7345	-1694.0625	4.1526	1601.18195	-1698.29117	198.93164	1642.82776	-1816.92932	-4.03686	1648.14651	-1804.15771	170.1005	1390.43823	-1821.25275	48.82174	1380.37506	-1809.37012	161.9993	1487.33185	-1945.61249	7.88383	1473.09586	-1918.67401	75.77149	1344.93988	-2047.36786	121.71278	1314.71512	-1795.64682	126.0969	1210.83542	-1797.66266	289.77924	1420.98297	-1900.80399	346.33018	1199.87	-1952.19711	359.51885	1121.52367	-2005.67795	380.19241	1002.73796	-1976.94946	327.65469	882.10815	-1897.77878	364.04083	871.21834	-1971.35162	377.26185	827.96005	-1910.53467	-84.15255	1386.48529	-1837.17987	-143.80547	1212.59384	-1878.20435	-159.71754	1093.22754	-1892.99591	-151.28268	955.16396	-1862.95029	-54.03476	858.68973	-1791.33057	-131.50714	836.95404	-1817.84927	-100.15181	803.17513	-1758.28583	224.46835	968.43109	-1870.47287	-10.3246	951.25214	-1848.36868	150.1403	1014.08401	-2077.87918	4.99384	1018.51151	-2061.66473	224.71821	721.26045	-2015.7634	276.0733	516.18782	-1821.84433	258.31905	324.72954	-1829.41681	258.23736	153.36706	-1943.65555	197.56432	147.14885	-1986.23474	260.33337	88.79495	-1782.76993	-37.19372	724.45351	-2079.79568	-24.13481	474.80877	-2030.02579	47.90874	293.82679	-2041.70135	26.88244	105.53247	-2150.29175	86.92293	120.66397	-2203.30322	49.41944	76.47046	-1981.56158
